HIERARCHY
ROOT reference
{
  OFFSET 0 0 0
  CHANNELS 6 Xposition Yposition Zposition Zrotation Xrotation Yrotation
  JOINT Hips
  {
    OFFSET 346.547 88.4868 223.89
    CHANNELS 3 Zrotation Xrotation Yrotation
    JOINT RightUpLeg
    {
      OFFSET -9.27468 -1.51611 -0.00175448
      CHANNELS 3 Zrotation Xrotation Yrotation
      JOINT RightLeg
      {
        OFFSET -0.00464511 -41.8738 0.0184652
        CHANNELS 3 Zrotation Xrotation Yrotation
        JOINT RightFoot
        {
          OFFSET -0.626239 -42.3044 -0.171503
          CHANNELS 3 Zrotation Xrotation Yrotation
          End Site
          {
            OFFSET 0 -7.69 17.5
          }
        }
      }
    }
    JOINT LeftUpLeg
    {
      OFFSET 9.30083 -1.68454 -0.0454748
      CHANNELS 3 Zrotation Xrotation Yrotation
      JOINT LeftLeg
      {
        OFFSET 0.0692631 -41.8513 -0.097029
        CHANNELS 3 Zrotation Xrotation Yrotation
        JOINT LeftFoot
        {
          OFFSET 0.520945 -41.523 0.446349
          CHANNELS 3 Zrotation Xrotation Yrotation
          End Site
          {
            OFFSET 0 -7.69 17.5
          }
        }
      }
    }
    JOINT Spine
    {
      OFFSET 0.0770133 14.2992 0.0590021
      CHANNELS 3 Zrotation Xrotation Yrotation
      JOINT Spine1
      {
        OFFSET 0.0471461 9.71665 0.020973
        CHANNELS 3 Zrotation Xrotation Yrotation
        JOINT Spine2
        {
          OFFSET 0.051283 10.117 0.000913966
          CHANNELS 3 Zrotation Xrotation Yrotation
          JOINT Spine3
          {
            OFFSET 0.0447963 9.71088 0.00221408
            CHANNELS 3 Zrotation Xrotation Yrotation
            JOINT Neck
            {
              OFFSET 0.115655 10.3749 0.0448519
              CHANNELS 3 Zrotation Xrotation Yrotation
              JOINT Head
              {
                OFFSET 0.0937003 9.47807 0.0215077
                CHANNELS 3 Zrotation Xrotation Yrotation
                End Site
                {
                  OFFSET 0 15.95 0
                }
              }
            }
            JOINT RightShoulder
            {
              OFFSET -3.17023 6.91072 -0.0050072
              CHANNELS 3 Zrotation Xrotation Yrotation
              JOINT RightArm
              {
                OFFSET -12.7573 0.00694711 0.0313031
                CHANNELS 3 Zrotation Xrotation Yrotation
                JOINT RightForeArm
                {
                  OFFSET -26.5152 -0.0619338 -0.0331286
                  CHANNELS 3 Zrotation Xrotation Yrotation
                  JOINT RightHand
                  {
                    OFFSET -25.9971 0.0398378 -0.0269922
                    CHANNELS 3 Zrotation Xrotation Yrotation
                    JOINT RightHandThumb1
                    {
                      OFFSET -2.48905 0.190105 3.12053
                      CHANNELS 3 Zrotation Xrotation Yrotation
                      JOINT RightHandThumb2
                      {
                        OFFSET -3.68274 0 0
                        CHANNELS 3 Zrotation Xrotation Yrotation
                        JOINT RightHandThumb3
                        {
                          OFFSET -2.55832 0 0
                          CHANNELS 3 Zrotation Xrotation Yrotation
                          End Site
                          {
                            OFFSET -2.194 0 0
                          }
                        }
                      }
                    }
                    JOINT RightInHandIndex
                    {
                      OFFSET -3.22368 0.508421 1.97842
                      CHANNELS 3 Zrotation Xrotation Yrotation
                      JOINT RightHandIndex1
                      {
                        OFFSET -5.21684 -0.091368 0.999158
                        CHANNELS 3 Zrotation Xrotation Yrotation
                        JOINT RightHandIndex2
                        {
                          OFFSET -3.61937 0 0
                          CHANNELS 3 Zrotation Xrotation Yrotation
                          JOINT RightHandIndex3
                          {
                            OFFSET -2.0521 0 0
                            CHANNELS 3 Zrotation Xrotation Yrotation
                            End Site
                            {
                              OFFSET -1.805 0 0
                            }
                          }
                        }
                      }
                    }
                    JOINT RightInHandMiddle
                    {
                      OFFSET -3.38211 0.517263 0.756737
                      CHANNELS 3 Zrotation Xrotation Yrotation
                      JOINT RightHandMiddle1
                      {
                        OFFSET -5.17411 -0.084 0.313895
                        CHANNELS 3 Zrotation Xrotation Yrotation
                        JOINT RightHandMiddle2
                        {
                          OFFSET -3.94947 0 0
                          CHANNELS 3 Zrotation Xrotation Yrotation
                          JOINT RightHandMiddle3
                          {
                            OFFSET -2.47579 0 0
                            CHANNELS 3 Zrotation Xrotation Yrotation
                            End Site
                            {
                              OFFSET -1.975 0 0
                            }
                          }
                        }
                      }
                    }
                    JOINT RightInHandRing
                    {
                      OFFSET -3.36516 0.537895 -0.128947
                      CHANNELS 3 Zrotation Xrotation Yrotation
                      JOINT RightHandRing1
                      {
                        OFFSET -4.63474 -0.022105 -0.478947
                        CHANNELS 3 Zrotation Xrotation Yrotation
                        JOINT RightHandRing2
                        {
                          OFFSET -3.44238 0 0
                          CHANNELS 3 Zrotation Xrotation Yrotation
                          JOINT RightHandRing3
                          {
                            OFFSET -2.3881 0 0
                            CHANNELS 3 Zrotation Xrotation Yrotation
                            End Site
                            {
                              OFFSET -1.857 0 0
                            }
                          }
                        }
                      }
                    }
                    JOINT RightInHandPinky
                    {
                      OFFSET -3.16105 0.469368 -1.20179
                      CHANNELS 3 Zrotation Xrotation Yrotation
                      JOINT RightHandPinky1
                      {
                        OFFSET -4.14105 -0.022105 -1.09053
                        CHANNELS 3 Zrotation Xrotation Yrotation
                        JOINT RightHandPinky2
                        {
                          OFFSET -2.75653 0 0
                          CHANNELS 3 Zrotation Xrotation Yrotation
                          JOINT RightHandPinky3
                          {
                            OFFSET -1.74189 0 0
                            CHANNELS 3 Zrotation Xrotation Yrotation
                            End Site
                            {
                              OFFSET -1.645 0 0
                            }
                          }
                        }
                      }
                    }
                  }
                }
              }
            }
            JOINT LeftShoulder
            {
              OFFSET 3.25178 6.92057 -0.0384945
              CHANNELS 3 Zrotation Xrotation Yrotation
              JOINT LeftArm
              {
                OFFSET 12.8462 -0.0383255 -0.0637898
                CHANNELS 3 Zrotation Xrotation Yrotation
                JOINT LeftForeArm
                {
                  OFFSET 26.4888 -0.0608964 -0.0673835
                  CHANNELS 3 Zrotation Xrotation Yrotation
                  JOINT LeftHand
                  {
                    OFFSET 25.9932 -0.0402352 -0.0274148
                    CHANNELS 3 Zrotation Xrotation Yrotation
                    JOINT LeftHandThumb1
                    {
                      OFFSET 2.48905 0.190105 3.12053
                      CHANNELS 3 Zrotation Xrotation Yrotation
                      JOINT LeftHandThumb2
                      {
                        OFFSET 3.68274 0 0
                        CHANNELS 3 Zrotation Xrotation Yrotation
                        JOINT LeftHandThumb3
                        {
                          OFFSET 2.55832 0 0
                          CHANNELS 3 Zrotation Xrotation Yrotation
                          End Site
                          {
                            OFFSET 2.194 0 0
                          }
                        }
                      }
                    }
                    JOINT LeftInHandIndex
                    {
                      OFFSET 3.22368 0.508421 1.97842
                      CHANNELS 3 Zrotation Xrotation Yrotation
                      JOINT LeftHandIndex1
                      {
                        OFFSET 5.21684 -0.091368 0.999158
                        CHANNELS 3 Zrotation Xrotation Yrotation
                        JOINT LeftHandIndex2
                        {
                          OFFSET 3.61937 0 0
                          CHANNELS 3 Zrotation Xrotation Yrotation
                          JOINT LeftHandIndex3
                          {
                            OFFSET 2.0521 0 0
                            CHANNELS 3 Zrotation Xrotation Yrotation
                            End Site
                            {
                              OFFSET 1.805 0 0
                            }
                          }
                        }
                      }
                    }
                    JOINT LeftInHandMiddle
                    {
                      OFFSET 3.38211 0.517263 0.756737
                      CHANNELS 3 Zrotation Xrotation Yrotation
                      JOINT LeftHandMiddle1
                      {
                        OFFSET 5.17411 -0.084 0.313895
                        CHANNELS 3 Zrotation Xrotation Yrotation
                        JOINT LeftHandMiddle2
                        {
                          OFFSET 3.94947 0 0
                          CHANNELS 3 Zrotation Xrotation Yrotation
                          JOINT LeftHandMiddle3
                          {
                            OFFSET 2.47579 0 0
                            CHANNELS 3 Zrotation Xrotation Yrotation
                            End Site
                            {
                              OFFSET 1.975 0 0
                            }
                          }
                        }
                      }
                    }
                    JOINT LeftInHandRing
                    {
                      OFFSET 3.36516 0.537895 -0.128947
                      CHANNELS 3 Zrotation Xrotation Yrotation
                      JOINT LeftHandRing1
                      {
                        OFFSET 4.63474 -0.022105 -0.478947
                        CHANNELS 3 Zrotation Xrotation Yrotation
                        JOINT LeftHandRing2
                        {
                          OFFSET 3.44238 0 0
                          CHANNELS 3 Zrotation Xrotation Yrotation
                          JOINT LeftHandRing3
                          {
                            OFFSET 2.3881 0 0
                            CHANNELS 3 Zrotation Xrotation Yrotation
                            End Site
                            {
                              OFFSET 1.857 0 0
                            }
                          }
                        }
                      }
                    }
                    JOINT LeftInHandPinky
                    {
                      OFFSET 3.16105 0.469368 -1.20179
                      CHANNELS 3 Zrotation Xrotation Yrotation
                      JOINT LeftHandPinky1
                      {
                        OFFSET 4.14105 -0.022105 -1.09053
                        CHANNELS 3 Zrotation Xrotation Yrotation
                        JOINT LeftHandPinky2
                        {
                          OFFSET 2.75653 0 0
                          CHANNELS 3 Zrotation Xrotation Yrotation
                          JOINT LeftHandPinky3
                          {
                            OFFSET 1.74189 0 0
                            CHANNELS 3 Zrotation Xrotation Yrotation
                            End Site
                            {
                              OFFSET 1.645 0 0
                            }
                          }
                        }
                      }
                    }
                  }
                }
              }
            }
          }
        }
      }
    }
  }
}
MOTION
Frames: 2
Frame Time: 0.00833333
4.200000000000000000e+03 0.000000000000000000e+00 0.000000000000000000e+00 0.000000000000000000e+00 0.000000000000000000e+00 0.000000000000000000e+00 2.050500000000000256e+01 1.174609999999999843e+01 -6.327949999999995612e+01 -1.546000000000000796e+01 -5.076020000000001176e+01 -1.697120000000000317e+01 -3.977249999999999730e+00 2.760539999999999949e+01 -1.073160000000000203e+01 1.000269999999999726e+01 2.176139999999996633e+00 2.201370000000000005e+01 1.020029999999999859e+01 -4.441009999999999991e+01 -1.644989999999999952e+00 8.918269999999999698e+00 3.305150000000001853e+01 -5.317250000000001364e+00 -1.536139999999999617e+01 -1.263649999999999807e+01 -1.751709999999999923e+01 -6.802429999999999310e+00 1.691519999999999868e+01 1.478670000000000329e+01 -1.285480000000000178e+00 4.297089999999999854e+00 3.491970000000000240e+00 -2.161540000000000461e+00 6.795969999999999622e+00 5.720340000000000202e+00 -7.355430000000007240e-02 -2.113739999999999508e-01 -5.809810000000004138e-01 -7.351930000000006515e-02 -2.125370000000001980e-01 -5.813759999999916772e-01 -1.684080000000001576e+00 -4.046270000000000699e+00 -1.035169999999999391e+01 -2.266000000000000014e+00 -1.098239999999999839e+01 2.617470000000000496e+01 7.239779999999998950e+01 -8.059689999999989141e+00 5.520820000000000505e+01 3.546720000000000539e+01 -5.903840000000000998e+01 1.994480000000000075e+01 2.206309999999999860e+01 -2.668769999999999953e+01 -2.181020000000000181e+01 2.818400000000000105e+01 1.072940000000000005e+01 1.915919999999999845e+01 2.048309999999999554e-14 1.689669999999999311e-15 -1.000000000000000000e+01 1.839379999999999845e-14 3.578119999999999853e-15 -1.000000000000000000e+01 0.000000000000000000e+00 4.770830000000000256e-15 6.361109999999999741e-15 1.998179999999999978e+01 8.718970000000000331e-01 2.396399999999999864e+00 2.400000000000000000e+01 1.113190000000000089e-14 3.180549999999997615e-15 2.000000000000000000e+01 2.067359999999999735e-14 2.544439999999999986e-14 0.000000000000000000e+00 4.770830000000000256e-15 6.361109999999999741e-15 2.000000000000000000e+01 1.590280000000000274e-15 9.541659999999998934e-15 2.400000000000000000e+01 1.828819999999999926e-14 0.000000000000000000e+00 2.000000000000000000e+01 7.951389999999999226e-15 3.180549999999999509e-14 0.000000000000000000e+00 4.770830000000000256e-15 6.361109999999999741e-15 1.997479999999999833e+01 -1.025649999999999951e+00 -2.819380000000000219e+00 2.400000000000000000e+01 -1.749309999999999705e-14 1.590280000000000116e-14 2.000000000000000000e+01 -4.770830000000001045e-15 1.590280000000000116e-14 0.000000000000000000e+00 4.770830000000000256e-15 6.361109999999999741e-15 1.978150000000000119e+01 -3.009479999999999933e+00 -8.305149999999999366e+00 2.400000000000000000e+01 3.180549999999998799e-15 9.541660000000000512e-15 2.000000000000000000e+01 -7.951389999999999226e-15 2.862499999999999793e-14 1.581860000000000355e+01 -1.269909999999999428e+01 -3.213579999999999615e+01 -3.939939999999999998e+01 2.351919999999999789e+01 -7.384579999999999700e+01 1.782389999999999475e+01 -5.213729999999999620e+01 2.675909999999998945e+01 -2.732739999999999725e+01 -2.821210000000000306e+01 9.250530000000001252e+00 -2.818400000000000105e+01 1.072940000000000005e+01 -1.915919999999999845e+01 -4.776789999999998483e-15 -9.541660000000000512e-15 1.000000000000000000e+01 -3.229620000000001389e-15 0.000000000000000000e+00 1.000000000000000000e+01 3.180549999999999982e-15 -6.361110000000000530e-15 -3.180550000000000771e-15 -1.998179999999999978e+01 8.718970000000000331e-01 -2.396399999999999864e+00 -2.400000000000000000e+01 -7.951389999999999226e-15 6.361109999999999741e-15 -2.000000000000000000e+01 -2.385420000000000805e-15 -1.272220000000000151e-14 3.180549999999999982e-15 -6.361110000000000530e-15 -3.180550000000000771e-15 -2.000000000000000000e+01 -1.272219999999999993e-14 0.000000000000000000e+00 -2.400000000000000000e+01 -7.951389999999999226e-16 3.180550000000000771e-15 -2.000000000000000000e+01 -7.951389999999999226e-16 -1.908330000000000462e-14 3.180549999999999982e-15 -6.361110000000000530e-15 -3.180550000000000771e-15 -1.997479999999999833e+01 -1.025649999999999951e+00 2.819380000000000219e+00 -2.400000000000000000e+01 6.361110000000000530e-15 6.361109999999999741e-15 -2.000000000000000000e+01 -1.590280000000000274e-15 -2.226389999999999955e-14 3.180549999999999982e-15 -6.361110000000000530e-15 -3.180550000000000771e-15 -1.978150000000000119e+01 -3.009479999999999933e+00 8.305149999999999366e+00 -2.400000000000000000e+01 -5.963540000000000659e-15 1.272219999999999993e-14 -2.000000000000000000e+01 9.541660000000000512e-15 -4.134720000000000102e-14
4.200000000000000000e+03 0.000000000000000000e+00 0.000000000000000000e+00 0.000000000000000000e+00 0.000000000000000000e+00 0.000000000000000000e+00 2.053579999999999472e+01 1.161540000000000106e+01 -6.354159999999998831e+01 -1.528619999999999379e+01 -5.081230000000000757e+01 -1.659130000000000393e+01 -3.987170000000000769e+00 2.756450000000000244e+01 -1.069630000000000258e+01 9.996829999999999217e+00 2.235009999999995500e+00 2.198910000000000053e+01 1.030440000000000111e+01 -4.436549999999999727e+01 -1.468609999999998195e+00 8.788589999999992131e+00 3.318659999999999854e+01 -5.187460000000001514e+00 -1.530920000000000059e+01 -1.272740000000000293e+01 -1.746389999999999532e+01 -6.842570000000000263e+00 1.688340000000000174e+01 1.483240000000000691e+01 -1.294999999999999929e+00 4.290160000000001084e+00 3.501179999999997960e+00 -2.176759999999999806e+00 6.784819999999999851e+00 5.733450000000001268e+00 -8.277590000000012438e-02 -2.113739999999999786e-01 -5.747110000000006380e-01 -8.275450000000006412e-02 -2.125370000000001980e-01 -5.750610000000051514e-01 -1.843569999999999709e+00 -4.002979999999999094e+00 -1.023890000000000100e+01 -2.147660000000000124e+00 -1.070520000000000493e+01 2.589420000000000144e+01 7.267180000000000462e+01 -8.187590000000000146e+00 5.522780000000001621e+01 3.616050000000001319e+01 -5.959879999999999001e+01 2.059170000000000300e+01 2.248009999999999309e+01 -2.590400000000000702e+01 -2.180809999999999960e+01 2.818400000000000105e+01 1.072940000000000005e+01 1.915919999999999845e+01 3.648100000000000253e-14 5.416879999999998990e-15 -1.000000000000000000e+01 2.709880000000000086e-14 7.156249999999999484e-15 -1.000000000000000000e+01 0.000000000000000000e+00 1.272219999999999993e-14 0.000000000000000000e+00 1.998179999999999978e+01 8.718970000000000331e-01 2.396399999999999864e+00 2.400000000000000000e+01 1.590280000000000116e-14 1.272219999999999677e-14 2.000000000000000000e+01 1.272219999999999993e-14 2.862499999999999793e-14 0.000000000000000000e+00 1.272219999999999993e-14 0.000000000000000000e+00 2.000000000000000000e+01 -4.770830000000001834e-15 9.541660000000000512e-15 2.400000000000000000e+01 1.749310000000000336e-14 1.908330000000000147e-14 2.000000000000000000e+01 -4.770830000000000256e-15 4.452780000000000541e-14 0.000000000000000000e+00 1.272219999999999993e-14 0.000000000000000000e+00 1.997479999999999833e+01 -1.025649999999999951e+00 -2.819380000000000219e+00 2.400000000000000000e+01 -6.361109999999998952e-15 2.226390000000000270e-14 2.000000000000000000e+01 -4.770830000000000256e-15 9.541660000000002090e-15 0.000000000000000000e+00 1.272219999999999993e-14 0.000000000000000000e+00 1.978150000000000119e+01 -3.009479999999999933e+00 -8.305149999999999366e+00 2.400000000000000000e+01 -3.975689999999999725e-15 1.272219999999999993e-14 2.000000000000000000e+01 9.541660000000000512e-15 3.180550000000000140e-14 1.569539999999999935e+01 -1.276889999999999503e+01 -3.221160000000000423e+01 -3.917280000000000939e+01 2.372879999999999256e+01 -7.395600000000000307e+01 1.789969999999999928e+01 -5.162530000000000996e+01 2.685160000000000480e+01 -2.717650000000000432e+01 -2.818710000000000093e+01 9.312129999999999797e+00 -2.818400000000000105e+01 1.072940000000000005e+01 -1.915919999999999845e+01 2.668799999999999506e-15 3.180550000000000771e-15 1.000000000000000000e+01 9.688860000000001011e-15 0.000000000000000000e+00 1.000000000000000000e+01 -9.541659999999998934e-15 -9.541660000000002090e-15 6.361110000000000530e-15 -1.998179999999999978e+01 8.718970000000000331e-01 -2.396399999999999864e+00 -2.400000000000000000e+01 4.770829999999998678e-15 6.361109999999999741e-15 -2.000000000000000000e+01 3.578119999999999853e-15 -2.226389999999999639e-14 -9.541659999999998934e-15 -9.541660000000002090e-15 6.361110000000000530e-15 -2.000000000000000000e+01 -1.272219999999999835e-14 -1.272220000000000308e-14 -2.400000000000000000e+01 3.180549999999999982e-15 2.226389999999999955e-14 -2.000000000000000000e+01 -3.180549999999999982e-15 9.541659999999997356e-15 -9.541659999999998934e-15 -9.541660000000002090e-15 6.361110000000000530e-15 -1.997479999999999833e+01 -1.025649999999999951e+00 2.819380000000000219e+00 -2.400000000000000000e+01 8.746529999999998969e-15 3.180549999999999193e-15 -2.000000000000000000e+01 7.951390000000003171e-16 -3.180550000000002348e-15 -9.541659999999998934e-15 -9.541660000000002090e-15 6.361110000000000530e-15 -1.978150000000000119e+01 -3.009479999999999933e+00 8.305149999999999366e+00 -2.400000000000000000e+01 4.770830000000000256e-15 1.590280000000000116e-14 -2.000000000000000000e+01 -1.590280000000001063e-15 -1.590279999999999801e-14
